<svg xmlns="http://www.w3.org/2000/svg" viewBox="0 0 654 128">
    <path fill="#232323" d="M-1.4e-7 28.651108H33.696033v12.092996q6.888139-8.372074 13.962445-11.162765 7.074305-2.976738 16.568768-2.976738 10.05296 0 17.127265 3.34883 7.260471 3.162783 12.286951 9.116258 4.09565 4.837199 5.584978 10.790674 1.48933 5.953475 1.48933 13.581365v60.651022H67.019734V75.906817q0-7.069753-1.116995-11.348813-.93083-4.465106-3.537153-7.069751-2.233991-2.232554-5.02648-3.162784-2.792489-.93023-5.957309-.93023-8.563633 0-13.217782 5.20929-4.467982 5.023245-4.467982 14.511596v50.976625H-1.4e-7Z" />
    <path fill="#232323" d="M193.42631 62.511497q-1.67549-7.069751-6.88813-11.348812-5.21265-4.27906-12.65929-4.27906-7.81897 0-12.84544 4.093014-4.84032 4.093014-6.14348 11.534858zm-39.46717 19.534841q0 21.767392 20.47825 21.767392 10.9838 0 16.56877-8.930212h32.57904q-9.86679 32.744112-49.33397 32.744112-12.10078 0-22.15375-3.53488-10.05296-3.72092-17.31343-10.41857-7.07431-6.69767-10.98379-15.99997-3.90949-9.302305-3.90949-20.837163 0-11.906951 3.72332-21.395301 3.72332-9.674397 10.61146-16.372057 6.88814-6.697659 16.56877-10.232535 9.8668-3.720922 22.15374-3.720922 12.10079 0 21.78142 3.720922 9.68063 3.534876 16.3826 10.418582 6.70197 6.883705 10.23912 16.930194 3.53716 9.860443 3.53716 22.325532v3.534876z" />
    <path fill="#232323" d="M316.10954 59.53476q-8.74979-5.953475-17.68576-5.953475-4.84031 0-9.12212 1.674414-4.09565 1.674415-7.26047 4.837199-3.16483 2.976737-5.02649 7.255797-1.67549 4.093016-1.67549 9.302306 0 5.023245 1.67549 9.302305 1.86166 4.093014 4.84032 7.255797 3.16482 2.976738 7.44664 4.651153 4.28181 1.674414 9.12212 1.674414 9.49447 0 17.68576-6.511613v28.651103q-12.47311 5.39533-23.64307 5.39533-10.42528 0-19.91975-3.53487-9.30829-3.53488-16.56876-10.04649-7.07431-6.69766-11.35613-15.81392-4.28182-9.302305-4.28182-20.651117 0-11.348812 4.09565-20.651117 4.09566-9.488351 11.16996-16.18601 7.07431-6.883705 16.75493-10.604627 9.8668-3.906968 21.03675-3.906968 12.28696 0 22.71224 5.20929z" />
    <path fill="#232323" d="M372.89011 56.744068v67.348682h-33.69603V56.744068h-11.16996v-28.09296h11.16996V.00000944h33.69603V28.651108h19.17509v28.09296z" />
    <path fill="#232323" d="M437.86153 76.092863q0 4.651152 1.6755 8.744166 1.67548 3.906968 4.46797 6.883706 2.97866 2.976737 6.88814 4.651152 4.09565 1.674415 8.7498 1.674415 4.46799 0 8.37746-1.674415 4.09566-1.674415 6.88815-4.651152 2.97865-2.976738 4.65415-6.883706 1.86166-3.906968 1.86166-8.372074t-1.86166-8.372075q-1.6755-4.093014-4.65415-7.069752-2.79249-2.976737-6.88815-4.651152-3.90947-1.674415-8.37746-1.674415-4.65415 0-8.7498 1.674415-3.90948 1.674415-6.88814 4.651152-2.79249 2.976738-4.46797 6.883706-1.6755 3.720923-1.6755 8.186029zm42.44583-47.441755h33.8822v95.441642h-33.8822v-10.60462q-10.79763 13.58136-29.22805 13.58136-10.4253 0-19.17509-3.72092-8.7498-3.90697-15.26561-10.79067-6.5158-6.88371-10.23912-16.186013-3.53716-9.302305-3.53716-20.279024 0-10.232536 3.53716-19.348795 3.53715-9.302304 9.86678-16.18601 6.32965-6.883705 15.07945-10.790673 8.7498-4.093014 19.36126-4.093014 17.87192 0 29.60038 12.465088z" />
    <path fill="#232323" d="M537.08768 28.651108h33.69603V44.27898q5.39882-8.55812 13.21779-13.023226 7.81896-4.651153 18.24426-4.651153h2.79249q1.67549 0 3.72332.372092v32.185974q-6.70198-3.348829-14.52095-3.348829-11.72845 0-17.68576 7.069751-5.77115 6.883706-5.77115 20.279025v40.930136h-33.69603z" />
    <path fill="#84CC16" d="M610.43671 106.23233q0-4.46511 1.67549-8.372074 1.6755-4.093014 4.65414-7.069752 2.97866-2.976737 6.88814-4.651152 4.09566-1.674415 8.56364-1.674415t8.37747 1.674415q4.09564 1.674415 7.0743 4.651152 2.97865 2.976738 4.65415 7.069752 1.67549 3.906964 1.67549 8.372074 0 4.46511-1.67549 8.55812-1.6755 3.90697-4.65415 6.88371-2.97866 2.97673-7.0743 4.65115-3.90949 1.67441-8.37747 1.67441-4.46798 0-8.56364-1.67441-3.90948-1.67442-6.88814-4.65115-2.97864-2.97674-4.65414-6.88371-1.67549-4.09301-1.67549-8.55812z" />
</svg>