<svg xmlns="http://www.w3.org/2000/svg" viewBox="0 0 1024 1024">
    <path fill="#232323" d="M1024 512A512 512 0 1 0 0 512a512 512 0 1 0 1024 0Z" />
    <path fill="#FFFFFF" d="M256 359.67556h109.40297v39.44657q22.36412-27.30917 45.3327-36.41222Q433.70425 353 464.53049 353q32.63957 0 55.60815 10.92365 23.573 10.3168 39.89278 29.73664 13.2976 15.77863 18.13308 35.19847Q583 448.27861 583 473.16029V671H473.59703V513.8206q0-23.06107-3.6266-37.0191-3.0222-14.56488-11.48431-23.06106-7.25322-7.28243-16.31977-10.31679-9.06654-3.03435-19.34196-3.03435-27.80406 0-42.91497 16.99236-14.50645 16.38549-14.50645 47.33588V671H256Z" />
    <path fill="#84CC16" d="M634.00008 602.49104q0-13.7436 5.15385-25.76924 5.15385-12.59829 14.31625-21.76068 9.16238-9.16239 21.18803-14.31623 12.59829-5.15385 26.34187-5.15385 13.74359 0 25.76923 5.15385 12.59829 5.15384 21.76068 14.31623 9.1624 9.16239 14.31624 21.76068 5.15385 12.02564 5.15385 25.76924 0 13.74358-5.15385 26.34187-5.15384 12.02565-14.31624 21.18803-9.16239 9.16236-21.76068 14.31623-12.02564 5.15387-25.76923 5.15387-13.74358 0-26.34187-5.15387-12.02565-5.15387-21.18803-14.31623-9.1624-9.16238-14.31625-21.18803-5.15385-12.59829-5.15385-26.34187z" />
</svg>